# xmcd
#
# Track frame offsets: 
#        150
#        17238
#        38425
#        57249
#        74690
#        94039
#        114739
#        129119
#        139863
#        153813
#        173110
#        186010
#        202168
#        218162
#        231789
#        243755
#        263002
#        277103
#        298478
#        313841
#        333830
#
# Disc length: 4681 seconds
#
# Revision: 0
# Processed by: cddbd v1.5.1PL2 Copyright (c) Steve Scherf et al.
# Submitted via: ExactAudioCopy v0.95b3
#
DISCID=39124715
DTITLE=Various Artist - Windswept-Trio-Quartet Sampler [CD7]
DYEAR=2004
DGENRE=Pop/Rock
TTITLE0=Deana Carter - How Do I Get There
TTITLE1=Dru Hill - In My Bed
TTITLE2=OutKast - Jazzy Belle
TTITLE3=Allison Moorer - A Soft Place To Fall
TTITLE4=Divine - Lately
TTITLE5=Johnny Lang - Leaving To Stay
TTITLE6=Meat Beat Manifesto - Prime Audio Soup
TTITLE7=Diamond Rio - Unbelievable
TTITLE8=LeAnn Rimes - Big Deal
TTITLE9=Destiny's Child - Bills, Bills, Bills
TTITLE10=Martina McBride - I Love You
TTITLE11=TLC - No Scrubs
TTITLE12=Lonestar - Smile
TTITLE13=Tim McGraw - Something Like That
TTITLE14=Bare Jr. - You Blew Me Off
TTITLE15=Craig David - Fill Me In
TTITLE16=Talib Kweli and Hi-Tek - The Blast
TTITLE17=Eminem - The Real Slim Shady
TTITLE18=Craig David - Walking Away
TTITLE19=Ginuwine - Differences
TTITLE20=Eve Featuring Gwen Stefani - Let Me Blow Ya Mind
EXTD=
EXTT0=
EXTT1=
EXTT2=
EXTT3=
EXTT4=
EXTT5=
EXTT6=
EXTT7=
EXTT8=
EXTT9=
EXTT10=
EXTT11=
EXTT12=
EXTT13=
EXTT14=
EXTT15=
EXTT16=
EXTT17=
EXTT18=
EXTT19=
EXTT20=
PLAYORDER=
